<svg xmlns="http://www.w3.org/2000/svg" width="14" height="16" viewBox="0 0 14 16" fill="none">
  <g clip-path="url(#clip0_409_1075)">
    <path d="M6.41667 2.66669H2.33333C2.02391 2.66669 1.72717 2.80716 1.50837 3.05721C1.28958 3.30726 1.16667 3.6464 1.16667 4.00002V13.3334C1.16667 13.687 1.28958 14.0261 1.50837 14.2762C1.72717 14.5262 2.02391 14.6667 2.33333 14.6667H10.5C10.8094 14.6667 11.1062 14.5262 11.325 14.2762C11.5437 14.0261 11.6667 13.687 11.6667 13.3334V8.66669" stroke="black" stroke-width="2" stroke-linecap="round" stroke-linejoin="round"/>
    <path d="M10.7917 1.66665C11.0237 1.40144 11.3385 1.25244 11.6667 1.25244C11.9949 1.25244 12.3096 1.40144 12.5417 1.66665C12.7737 1.93187 12.9041 2.29158 12.9041 2.66665C12.9041 3.04173 12.7737 3.40144 12.5417 3.66665L7 9.99999L4.66667 10.6667L5.25 7.99999L10.7917 1.66665Z" stroke="black" stroke-width="2" stroke-linecap="round" stroke-linejoin="round"/>
  </g>
  <defs>
    <clipPath id="clip0_409_1075">
      <rect width="14" height="16" fill="white"/>
    </clipPath>
  </defs>
</svg>